<svg xmlns="http://www.w3.org/2000/svg" width="304.819" height="138.725" viewBox="0 0 304.819 138.725">
  <g id="Group_140" data-name="Group 140" transform="translate(-33.245 -30.916)">
    <path id="Path_238" data-name="Path 238" d="M129.954,99.889a40.752,40.752,0,0,1,0-56.358,40.794,40.794,0,1,0,0,56.358" transform="translate(16.104)" fill="#52b1b1"/>
    <path id="Path_239" data-name="Path 239" d="M103.349,99.889a40.756,40.756,0,0,0,58.962,0,40.756,40.756,0,0,1,0-56.358,40.756,40.756,0,0,0-58.962,0,40.752,40.752,0,0,1,0,56.358" transform="translate(42.709)" fill="#c3a36b"/>
    <path id="Path_240" data-name="Path 240" d="M107.632,95.113a40.752,40.752,0,0,0,0-56.358,40.752,40.752,0,0,0,0,56.358" transform="translate(38.426 4.776)" fill="#ac9962"/>
    <path id="Path_241" data-name="Path 241" d="M139.989,99.889a40.794,40.794,0,1,0,0-56.358,40.748,40.748,0,0,1,0,56.358" transform="translate(65.031)" fill="#efa955"/>
    <path id="Path_242" data-name="Path 242" d="M144.271,95.113a40.748,40.748,0,0,0,0-56.358,40.756,40.756,0,0,0,0,56.358" transform="translate(60.749 4.776)" fill="#e29332"/>
    <path id="Path_243" data-name="Path 243" d="M49.311,109.261l-.29-.1,6.294-7.14a2.379,2.379,0,0,0,.663-1.672v-4.3a1.336,1.336,0,0,0-.311-.911.98.98,0,0,0-.766-.354H35.854a.942.942,0,0,0-.727.354,1.335,1.335,0,0,0-.309.911V100.8a1.36,1.36,0,0,0,.309.888.92.92,0,0,0,.727.381H47.364l-6.791,7.039a2.219,2.219,0,0,0-.663,1.722v2.835a1.359,1.359,0,0,0,.311.885.916.916,0,0,0,.724.381h4.6q4.306,0,4.306,4.05a4.1,4.1,0,0,1-4.472,4.456q-3.686,0-4.514-2.633a1.843,1.843,0,0,0-.539-.761,1.281,1.281,0,0,0-.745-.2H34.154a.832.832,0,0,0-.642.3,1.1,1.1,0,0,0-.267.76,9.654,9.654,0,0,0,1.386,4.533,10.3,10.3,0,0,0,4.018,3.772,13.607,13.607,0,0,0,6.728,1.517,13.933,13.933,0,0,0,6.253-1.366,10.426,10.426,0,0,0,4.348-3.9,10.989,10.989,0,0,0,1.574-5.924q0-4.661-2.216-7.166a9.79,9.79,0,0,0-6.025-3.117" transform="translate(0 38.907)" fill="#1c3a6a"/>
    <path id="Path_244" data-name="Path 244" d="M74.922,122.583H62l12.962-19.9a3.241,3.241,0,0,0,.539-1.722V96.045a1.389,1.389,0,0,0-.291-.911.921.921,0,0,0-.745-.356H53.555a.941.941,0,0,0-.726.356,1.325,1.325,0,0,0-.311.911v5.014a1.348,1.348,0,0,0,.311.885.92.92,0,0,0,.726.38H66.1L52.766,122.178A2.79,2.79,0,0,0,52.145,124v4.913a1.5,1.5,0,0,0,.291.938.9.9,0,0,0,.743.378H74.922a.985.985,0,0,0,.766-.354,1.335,1.335,0,0,0,.309-.911V123.9a1.443,1.443,0,0,0-.309-.937.956.956,0,0,0-.766-.378" transform="translate(11.514 38.907)" fill="#1c3a6a"/>
    <path id="Path_245" data-name="Path 245" d="M92.329,122.935H78.788V115.9h12.3a.9.9,0,0,0,.745-.38,1.432,1.432,0,0,0,.29-.885v-4.406a1.507,1.507,0,0,0-.29-.937.894.894,0,0,0-.745-.38h-12.3v-6.836H92a.9.9,0,0,0,.743-.38,1.416,1.416,0,0,0,.291-.888v-4.76a1.381,1.381,0,0,0-.291-.911A.916.916,0,0,0,92,94.78H72.661a.94.94,0,0,0-.727.354,1.332,1.332,0,0,0-.309.911v32.918a1.361,1.361,0,0,0,.309.885.916.916,0,0,0,.727.38H92.329a.9.9,0,0,0,.747-.38,1.428,1.428,0,0,0,.29-.885V124.2a1.405,1.405,0,0,0-.29-.912.924.924,0,0,0-.747-.356" transform="translate(23.382 38.907)" fill="#1c3a6a"/>
    <path id="Path_246" data-name="Path 246" d="M108.675,116.149a9.371,9.371,0,0,0,3.769-3.8,12.33,12.33,0,0,0,1.366-6.025q0-5.52-3.045-8.534T102.3,94.779H91.033a.94.94,0,0,0-.724.356,1.333,1.333,0,0,0-.311.911v32.918a1.362,1.362,0,0,0,.311.885.919.919,0,0,0,.724.38h5.344a.985.985,0,0,0,.766-.354,1.336,1.336,0,0,0,.311-.911V117.72h4.223l4.721,11.141a1.76,1.76,0,0,0,1.7,1.368H113.6a.765.765,0,0,0,.6-.33,1.116,1.116,0,0,0,.27-.734,1.49,1.49,0,0,0-.124-.555Zm-3.561-6.76a3.642,3.642,0,0,1-2.9,1.141H97.454v-8.712h4.762a3.547,3.547,0,0,1,2.919,1.192,4.933,4.933,0,0,1,.974,3.215,4.657,4.657,0,0,1-.995,3.164" transform="translate(34.575 38.907)" fill="#1c3a6a"/>
    <path id="Path_247" data-name="Path 247" d="M130.989,98.084a13.354,13.354,0,0,0-18.282,0q-3.418,3.623-3.624,10.307-.043,1.468-.042,4.4,0,2.889.042,4.358.205,6.783,3.561,10.278t9.193,3.494q5.839,0,9.194-3.494t3.56-10.278q.082-2.938.082-4.358,0-1.468-.082-4.4-.164-6.686-3.6-10.307m-4.1,18.765a8.424,8.424,0,0,1-1.427,5.114,4.411,4.411,0,0,1-3.624,1.672,4.348,4.348,0,0,1-3.6-1.672,8.676,8.676,0,0,1-1.448-5.114q-.043-1.47-.042-4.152,0-2.737.042-4.155a8.557,8.557,0,0,1,1.469-5.114,4.365,4.365,0,0,1,3.582-1.672,4.426,4.426,0,0,1,3.6,1.672,8.323,8.323,0,0,1,1.448,5.114c.055,1.892.084,3.275.084,4.155q0,1.212-.084,4.152" transform="translate(46.177 38.716)" fill="#1c3a6a"/>
    <path id="Path_248" data-name="Path 248" d="M156.086,95.958a14.1,14.1,0,0,0-6.545-1.493,12.079,12.079,0,0,0-9.193,3.571q-3.4,3.568-3.6,10.153-.043,1.422-.043,4.556,0,3.092.043,4.459.205,6.684,3.539,10.2t9.255,3.518a14.081,14.081,0,0,0,6.545-1.492,11.342,11.342,0,0,0,4.575-4.255,12.47,12.47,0,0,0,1.719-6.456.979.979,0,0,0-.229-.761.835.835,0,0,0-.642-.3h-5.59a1.21,1.21,0,0,0-.869.28,2.052,2.052,0,0,0-.454,1.04,6.1,6.1,0,0,1-1.785,3.569,4.935,4.935,0,0,1-3.309,1.088q-4.888,0-5.055-6.686-.041-1.463-.042-4.3t.042-4.2q.164-6.686,5.055-6.686a4.928,4.928,0,0,1,3.27,1.04,6.465,6.465,0,0,1,1.823,3.621,2.331,2.331,0,0,0,.494,1.038,1.157,1.157,0,0,0,.829.278h5.59a.829.829,0,0,0,.6-.278.95.95,0,0,0,.269-.682v-.1a12.474,12.474,0,0,0-1.719-6.456,11.342,11.342,0,0,0-4.575-4.255" transform="translate(63.03 38.716)" fill="#1c3a6a"/>
    <path id="Path_249" data-name="Path 249" d="M177.374,122.583H164.827V96.045a1.389,1.389,0,0,0-.29-.911.919.919,0,0,0-.747-.356h-5.465a.933.933,0,0,0-.724.356,1.325,1.325,0,0,0-.311.911v32.918a1.361,1.361,0,0,0,.311.887.915.915,0,0,0,.724.378h19.048a.9.9,0,0,0,.747-.378,1.436,1.436,0,0,0,.29-.887V123.9a1.517,1.517,0,0,0-.29-.937.9.9,0,0,0-.747-.378" transform="translate(75.572 38.907)" fill="#1c3a6a"/>
    <path id="Path_250" data-name="Path 250" d="M197.823,94.779h-5.384a.941.941,0,0,0-.724.354,1.336,1.336,0,0,0-.312.912v20.611a7.986,7.986,0,0,1-1.281,4.913,4.861,4.861,0,0,1-7.309.026,8.029,8.029,0,0,1-1.265-4.939V96.045a1.334,1.334,0,0,0-.309-.912.986.986,0,0,0-.768-.354H175.13a.936.936,0,0,0-.724.354,1.335,1.335,0,0,0-.311.912v20.662q0,7.036,3.292,10.534t9.129,3.492q5.757,0,9.05-3.492t3.291-10.534V96.045a1.391,1.391,0,0,0-.291-.912.918.918,0,0,0-.743-.354" transform="translate(85.809 38.907)" fill="#1c3a6a"/>
    <path id="Path_251" data-name="Path 251" d="M218.232,114.733a7.574,7.574,0,0,0-2.856-3.09,7.414,7.414,0,0,0,2.382-2.557,8.144,8.144,0,0,0,1.054-4.281q0-4.808-2.546-7.419T208.5,94.78H195.871a.931.931,0,0,0-.724.354,1.321,1.321,0,0,0-.312.911v32.917a1.348,1.348,0,0,0,.312.887.908.908,0,0,0,.724.38h13q5.055,0,7.785-2.835t2.734-7.9a9.786,9.786,0,0,0-1.16-4.76m-15.943-13.369h5.383a3.137,3.137,0,0,1,2.525,1.012,3.971,3.971,0,0,1,.872,2.683,4.151,4.151,0,0,1-.872,2.761,3.1,3.1,0,0,1-2.525,1.038h-5.383ZM210.7,122.43a3.182,3.182,0,0,1-2.652,1.215h-5.755V115.29h5.755a3.207,3.207,0,0,1,2.652,1.189,4.67,4.67,0,0,1,.953,3.014,4.617,4.617,0,0,1-.953,2.937" transform="translate(98.444 38.907)" fill="#1c3a6a"/>
    <path id="Path_252" data-name="Path 252" d="M218.838,95.257v.859h-2.2v7.219h-1.055V96.115h-2.213v-.859Z" transform="translate(109.735 39.198)" fill="#1c3969"/>
    <path id="Path_253" data-name="Path 253" d="M225.767,95.293v8.019h-1.055v-5.98l-2.665,5.98h-.741l-2.678-5.991v5.991h-1.054V95.293h1.135l2.966,6.63,2.967-6.63Z" transform="translate(112.298 39.22)" fill="#1c3969"/>
  </g>
</svg>
