<svg id="Group_191" data-name="Group 191" xmlns="http://www.w3.org/2000/svg" width="29.502" height="20.779" viewBox="0 0 29.502 20.779">
  <path id="Path_258" data-name="Path 258" d="M-422.182,312.184a2.667,2.667,0,0,1,2.067-2.054,1.966,1.966,0,0,1,.457-.038q12.218,0,24.435,0a2.566,2.566,0,0,1,2.542,2.554q0,7.828,0,15.657a2.567,2.567,0,0,1-2.57,2.556q-12.131,0-24.262.011a2.7,2.7,0,0,1-2.615-1.94c-.016-.055-.035-.109-.053-.164Zm3.092-.312c.068.077.1.114.131.147q5.382,5.4,10.765,10.807a.979.979,0,0,0,1.5,0c.41-.4.806-.821,1.213-1.229q4.735-4.749,9.471-9.5c.063-.063.159-.108.168-.232Zm-.026,17.195h23.29a.425.425,0,0,0-.041-.075q-3.526-3.538-7.05-7.077c-.142-.143-.223-.109-.347.016q-1.081,1.1-2.174,2.182a2.743,2.743,0,0,1-4.006,0c-.713-.712-1.431-1.419-2.131-2.143-.182-.189-.278-.17-.452.005q-2.633,2.659-5.282,5.3C-417.891,327.861-418.48,328.438-419.116,329.067Zm-1.3-15.927v14.673c.1-.1.175-.159.242-.226q3.426-3.433,6.856-6.863c.2-.2.2-.3,0-.5q-3.435-3.424-6.855-6.863C-420.235,313.3-420.307,313.236-420.411,313.14Zm25.95-.006c-.09.079-.135.113-.175.153q-3.5,3.5-7,7.006c-.171.17-.1.257.029.391q3.47,3.47,6.935,6.945c.055.055.093.152.207.125Z" transform="translate(422.182 -310.091)" fill="#fff"/>
</svg>
