<svg xmlns="http://www.w3.org/2000/svg" width="16.427" height="16.396" viewBox="0 0 16.427 16.396">
  <path id="Path_196" data-name="Path 196" d="M2753.877,1307.294a7.354,7.354,0,0,1,7.314,6.425,7.215,7.215,0,0,1-1.044,4.833.344.344,0,0,0,.06.517q1.148,1.122,2.271,2.268a1.371,1.371,0,0,1-1.109,2.346,1.374,1.374,0,0,1-.863-.439c-.749-.749-1.5-1.491-2.243-2.248a.323.323,0,0,0-.487-.064,7.381,7.381,0,1,1-4.852-13.579A8.189,8.189,0,0,1,2753.877,1307.294Zm-4.65,7.368a4.648,4.648,0,1,0,4.664-4.639A4.67,4.67,0,0,0,2749.227,1314.662Z" transform="translate(-2746.473 -1307.294)" fill="#cdebfd"/>
</svg>
