<svg xmlns="http://www.w3.org/2000/svg" width="21.244" height="30.836" viewBox="0 0 21.244 30.836">
  <path id="Path_259" data-name="Path 259" d="M-838.032,283.843a2.435,2.435,0,0,1-1.353-1.247q-3.434-6.328-6.9-12.64a14.186,14.186,0,0,1-1.543-3.51,10.661,10.661,0,0,1,2.418-9.919,9.83,9.83,0,0,1,5.933-3.342,10.252,10.252,0,0,1,8.937,2.492A10.54,10.54,0,0,1-827,262.544a10.539,10.539,0,0,1-1.255,6.382q-3.761,6.9-7.534,13.8a2.306,2.306,0,0,1-1.278,1.116Zm.478-25.48a4.276,4.276,0,0,0-4.286,4.323,4.224,4.224,0,0,0,4.293,4.272,4.224,4.224,0,0,0,4.287-4.308A4.279,4.279,0,0,0-837.555,258.363Z" transform="translate(848.172 -253.007)" fill="#fff"/>
</svg>
