<svg xmlns="http://www.w3.org/2000/svg" width="32.727" height="32.727" viewBox="0 0 32.727 32.727">
  <g id="Group_252" data-name="Group 252" transform="translate(-1292.656 -1141.266)" opacity="0.998">
    <g id="Group_254" data-name="Group 254">
      <g id="Group_252-2" data-name="Group 252" transform="translate(1300.415 1147.892)">
        <path id="Path_287" data-name="Path 287" d="M1352.617,1200.375c-.025-.5-.061-.9-.062-1.292-.008-3.284.029-6.568-.034-9.851-.019-1,.318-1.307,1.269-1.212.719.072,1.451.015,2.212.015l.114,1.352a5.428,5.428,0,0,1,4.9-1.218c1.518.261,2.76,1.08,2.892,2.637.256,3,.256,6.029.322,9.046,0,.17-.341.488-.536.5-1.02.051-2.044.024-3.21.024,0-2.034.016-3.941-.009-5.847a9.533,9.533,0,0,0-.2-1.968,1.681,1.681,0,0,0-1.774-1.366,1.815,1.815,0,0,0-2,1.244,6.282,6.282,0,0,0-.261,1.734q-.054,2.655-.012,5.313c.01.655-.193.94-.885.9C1354.471,1200.341,1353.591,1200.375,1352.617,1200.375Z" transform="translate(-1345.84 -1181.958)" fill="#fff"/>
        <path id="Path_288" data-name="Path 288" d="M1327,1200.458h-4.327V1188.2c1.279,0,2.551-.023,3.82.026a.764.764,0,0,1,.485.562C1327.01,1192.648,1327,1196.509,1327,1200.458Z" transform="translate(-1322.612 -1182.104)" fill="#fff"/>
        <path id="Path_289" data-name="Path 289" d="M1324.524,1165.05a2.149,2.149,0,0,1-2.136-2.2,2.184,2.184,0,0,1,4.367.1A2.12,2.12,0,0,1,1324.524,1165.05Z" transform="translate(-1322.387 -1160.729)" fill="#fff"/>
      </g>
      <rect id="Rectangle_262" data-name="Rectangle 262" width="29.727" height="29.727" transform="translate(1294.156 1142.766)" fill="none" stroke="#fff" stroke-miterlimit="10" stroke-width="3"/>
    </g>
  </g>
</svg>
