<svg xmlns="http://www.w3.org/2000/svg" width="16.178" height="34.713" viewBox="0 0 16.178 34.713">
  <path id="Path_32" data-name="Path 32" d="M1957.333,1192.5v-6.828l3.395-.234c0-1.04-.021-2.059,0-3.077.107-4.514,2.672-7.1,7.169-7.194,1.772-.038,3.546-.006,5.451-.006v6.068c-.9,0-1.736,0-2.573,0-2.43.011-2.736.33-2.668,2.815.011.422.084.843.149,1.456h5.252c-.173,2.266-.281,4.323-.54,6.363-.037.3-.766.7-1.2.733-1.214.1-2.442.035-3.881.035v17.229h-7.1V1192.8Z" transform="translate(-1957.333 -1175.148)" fill="#41bed0"/>
</svg>
