<svg id="Group_28" data-name="Group 28" xmlns="http://www.w3.org/2000/svg" width="33.843" height="33.941" viewBox="0 0 33.843 33.941">
  <path id="Path_37" data-name="Path 37" d="M1980.311,1420.968c0,2.378.055,4.758-.011,7.134a9.9,9.9,0,0,1-9.736,9.785c-4.7.113-9.4.1-14.1,0a9.9,9.9,0,0,1-9.9-9.964q-.121-6.884-.015-13.771a9.916,9.916,0,0,1,10.254-10.108q6.636-.043,13.274,0a9.912,9.912,0,0,1,10.242,10.113c.047,2.266.007,4.535.007,6.8Zm-16.973,14.066c1.992,0,3.984.033,5.975-.006a8.236,8.236,0,0,0,8.194-8.287q.054-5.725,0-11.452a8.278,8.278,0,0,0-8.416-8.421q-5.642-.043-11.286,0a8.249,8.249,0,0,0-8.431,8.391q-.074,5.724,0,11.451a8.2,8.2,0,0,0,8.32,8.314C1959.577,1435.055,1961.458,1435.033,1963.339,1435.034Z" transform="translate(-1946.499 -1404.027)" fill="#41bed0"/>
  <path id="Path_38" data-name="Path 38" d="M1974.657,1422.6a9.551,9.551,0,1,1-9.622-9.548A9.494,9.494,0,0,1,1974.657,1422.6Zm-9.331-6.525a6.573,6.573,0,1,0,6.328,6.73A6.524,6.524,0,0,0,1965.326,1416.076Z" transform="translate(-1948.172 -1405.695)" fill="#41bed0"/>
  <path id="Path_39" data-name="Path 39" d="M1977.415,1414.78a2.209,2.209,0,0,1-2.167-2.088,2.133,2.133,0,0,1,2.1-2.129,2.162,2.162,0,0,1,2.17,2.065A2.217,2.217,0,0,1,1977.415,1414.78Z" transform="translate(-1951.812 -1405.235)" fill="#41bed0"/>
</svg>
