<svg xmlns="http://www.w3.org/2000/svg" width="31.9" height="26.469" viewBox="0 0 31.9 26.469">
  <path id="Path_36" data-name="Path 36" d="M1979.053,1523.934l-1.951,2.853,2.489-.471c-.072.279-.06.505-.158.574-2.5,1.75-2.647,4.435-3.2,7.137-2.794,13.748-17.187,18.614-28.013,12.917-.139-.073-.229-.238-.532-.566,3.213-.109,6.135-.63,8.862-2.618-2.554-.889-4.779-1.936-5.627-4.733l2.122-.2c-2.71-1.515-4.559-3.3-4.571-6.48l2.435.518c-2.384-2.657-3.24-5.36-1.67-8.431a51.757,51.757,0,0,0,6.268,4.4c2.234,1.138,4.776,1.671,7.487,2.571.051-1.06.079-1.555.1-2.05.209-5.04,5.8-8.248,10.064-5.567a4.221,4.221,0,0,0,4.648.215c.3-.149.622-.25.934-.374Z" transform="translate(-1947.69 -1522.813)" fill="#41bed0"/>
</svg>
