<svg id="Group_27" data-name="Group 27" xmlns="http://www.w3.org/2000/svg" width="34.277" height="34.351" viewBox="0 0 34.277 34.351">
  <path id="Path_33" data-name="Path 33" d="M1961.685,1326.453c-.047-.938-.115-1.673-.116-2.409-.014-6.12.054-12.241-.062-18.359-.036-1.869.593-2.435,2.366-2.257,1.34.134,2.7.026,4.121.026l.212,2.52c2.717-2.479,5.835-2.837,9.135-2.27,2.828.486,5.143,2.014,5.39,4.914.478,5.6.477,11.238.6,16.861.006.316-.637.91-1,.928-1.9.094-3.809.044-5.984.044,0-3.791.031-7.345-.016-10.9a17.839,17.839,0,0,0-.378-3.668,3.132,3.132,0,0,0-3.306-2.546c-1.731-.033-3.169.554-3.72,2.318a11.734,11.734,0,0,0-.487,3.231q-.1,4.948-.022,9.9c.018,1.22-.359,1.753-1.648,1.686C1965.139,1326.388,1963.5,1326.453,1961.685,1326.453Z" transform="translate(-1949.055 -1292.128)" fill="#41bed0"/>
  <path id="Path_34" data-name="Path 34" d="M1954.443,1326.352h-8.063V1303.5c2.383,0,4.754-.043,7.12.049.328.012.9.68.9,1.048C1954.457,1311.8,1954.443,1318.992,1954.443,1326.352Z" transform="translate(-1946.259 -1292.146)" fill="#41bed0"/>
  <path id="Path_35" data-name="Path 35" d="M1950.215,1297.625a4.007,4.007,0,0,1-3.982-4.1,4.071,4.071,0,0,1,8.141.184A3.952,3.952,0,0,1,1950.215,1297.625Z" transform="translate(-1946.232 -1289.573)" fill="#41bed0"/>
</svg>
